<?xml version="1.0" encoding="UTF-8" standalone="no"?>
<!-- Created with Inkscape (http://www.inkscape.org/) -->

<svg
   width="210mm"
   height="297mm"
   viewBox="0 0 210 297"
   version="1.1"
   id="svg1"
   inkscape:version="1.4.2 (f4327f4, 2025-05-13)"
   sodipodi:docname="butter.svg"
   xmlns:inkscape="http://www.inkscape.org/namespaces/inkscape"
   xmlns:sodipodi="http://sodipodi.sourceforge.net/DTD/sodipodi-0.dtd"
   xmlns:xlink="http://www.w3.org/1999/xlink"
   xmlns="http://www.w3.org/2000/svg"
   xmlns:svg="http://www.w3.org/2000/svg">
  <sodipodi:namedview
     id="namedview1"
     pagecolor="#ffffff"
     bordercolor="#000000"
     borderopacity="0.25"
     inkscape:showpageshadow="2"
     inkscape:pageopacity="0.0"
     inkscape:pagecheckerboard="0"
     inkscape:deskcolor="#d1d1d1"
     inkscape:document-units="mm"
     inkscape:zoom="0.96746632"
     inkscape:cx="649.63502"
     inkscape:cy="893.57116"
     inkscape:window-width="1366"
     inkscape:window-height="745"
     inkscape:window-x="-8"
     inkscape:window-y="-8"
     inkscape:window-maximized="1"
     inkscape:current-layer="layer2" />
  <defs
     id="defs1">
    <rect
       x="308.02106"
       y="393.81216"
       width="272.87772"
       height="96.127377"
       id="rect9" />
    <rect
       x="534.64249"
       y="200.99342"
       width="217.07289"
       height="144.34982"
       id="rect12" />
    <rect
       x="308.02106"
       y="393.81216"
       width="272.87772"
       height="96.127377"
       id="rect10" />
  </defs>
  <g
     inkscape:label="Drafts"
     inkscape:groupmode="layer"
     id="layer1"
     inkscape:highlight-color="#818181">
    <path
       style="fill:#fff99d;fill-opacity:1;stroke:#7d7d7d;stroke-width:0.2;stroke-linecap:round;stroke-linejoin:round"
       d="M 89.701657,70.011048 82.557502,80.445823 24.6237,64.922508 32.140273,53.842684 Z"
       id="path1"
       sodipodi:nodetypes="ccccc" />
    <path
       style="fill:#fff99d;fill-opacity:1;stroke:#7d7d7d;stroke-width:0.2;stroke-linecap:round;stroke-linejoin:round"
       d="m 24.6237,64.922508 v 17.12169 l 60.177824,16.124599 -4.942607,-18.446059 9.740429,-9.740429 10.328518,17.889519"
       id="path2" />
    <path
       style="fill:#fff99d;fill-opacity:1;stroke:#7d7d7d;stroke-width:0.2;stroke-linecap:round;stroke-linejoin:round"
       d="m 134.93567,56.208207 c 0,0 23.51706,-17.278579 27.07321,-17.790962 4.62943,-0.667026 13.92336,1.740419 13.92336,1.740419 l -23.97913,21.658564 z"
       id="path3"
       sodipodi:nodetypes="csccc" />
    <path
       style="fill:#fff99d;fill-opacity:1;stroke:#7d7d7d;stroke-width:0.2;stroke-linecap:round;stroke-linejoin:round"
       d="m 134.93567,56.208207 c 0,0 -1.4866,12.73371 0.38676,15.277023 1.43447,1.947474 16.82406,5.994781 16.82406,5.994781 l -0.19338,-15.663783 z"
       id="path4"
       sodipodi:nodetypes="csccc" />
    <path
       style="fill:#fff99d;fill-opacity:1;stroke:#7d7d7d;stroke-width:0.2;stroke-linecap:round;stroke-linejoin:round"
       d="m 175.93224,40.157664 c 0,0 4.78308,6.983041 4.64112,8.992173 -0.12672,1.793449 -28.42687,28.330174 -28.42687,28.330174 0,0 -4.06839,-12.163777 -0.19338,-15.663783 4.56524,-4.123443 23.97913,-21.658564 23.97913,-21.658564 z"
       id="path5"
       sodipodi:nodetypes="cscsc" />
    <path
       style="fill:#fff99d;fill-opacity:1;stroke:#7d7d7d;stroke-width:0.2;stroke-linecap:round;stroke-linejoin:round"
       d="m 28.86926,142.61163 c 0,0 23.51706,-17.27858 27.07321,-17.79096 4.629433,-0.66703 13.923363,1.74042 13.923363,1.74042 L 45.8867,148.21965 Z"
       id="path3-8-1"
       sodipodi:nodetypes="csccc" />
    <path
       style="fill:#fff99d;fill-opacity:1;stroke:#7d7d7d;stroke-width:0.2;stroke-linecap:round;stroke-linejoin:round"
       d="m 28.86926,142.61163 c 0,0 -1.4866,12.73371 0.38676,15.27702 1.43447,1.94748 16.82406,5.99478 16.82406,5.99478 L 45.8867,148.21965 Z"
       id="path4-2-1"
       sodipodi:nodetypes="csccc" />
    <path
       style="fill:#fff99d;fill-opacity:1;stroke:#7d7d7d;stroke-width:0.2;stroke-linecap:round;stroke-linejoin:round"
       d="m 69.865833,126.56109 c 0,0 4.78308,6.98304 4.64112,8.99217 -0.12672,1.79345 -28.426873,28.33017 -28.426873,28.33017 0,0 -4.06839,-12.16377 -0.19338,-15.66378 4.56524,-4.12344 23.979133,-21.65856 23.979133,-21.65856 z"
       id="path5-4-5"
       sodipodi:nodetypes="cscsc" />
    <text
       xml:space="preserve"
       transform="matrix(0.26458333,0,0,0.26458333,26.524792,16.40884)"
       id="text9"
       style="font-style:italic;font-weight:bold;font-size:37.3333px;font-family:Candara;-inkscape-font-specification:'Candara, Bold Italic';text-align:start;letter-spacing:4.5px;writing-mode:lr-tb;direction:ltr;white-space:pre;shape-inside:url(#rect9);display:inline;fill:#fff99d;fill-opacity:1;stroke:#161616;stroke-width:0.755906;stroke-linecap:round;stroke-linejoin:round;stroke-dasharray:none;stroke-opacity:1"><tspan
         x="308.02148"
         y="425.53122"
         id="tspan1">BUTTER</tspan></text>
  </g>
  <g
     inkscape:groupmode="layer"
     id="layer2"
     inkscape:label="Butter"
     style="display:inline">
    <path
       style="fill:#fff99d;fill-opacity:1;stroke:#7d7d7d;stroke-width:0.2;stroke-linecap:round;stroke-linejoin:round"
       d="m 116.3127,202.33431 c 0,0 23.51706,-17.27858 27.07321,-17.79096 4.62943,-0.66703 13.92336,1.74042 13.92336,1.74042 -3.09519,8.72655 -4.68579,17.91605 -23.97913,21.65856 z"
       id="path3-8"
       sodipodi:nodetypes="csccc"
       inkscape:export-filename="butter.png"
       inkscape:export-xdpi="961.98352"
       inkscape:export-ydpi="961.98352" />
    <path
       style="fill:#fff99d;fill-opacity:1;stroke:#7d7d7d;stroke-width:0.2;stroke-linecap:round;stroke-linejoin:round"
       d="m 133.33014,207.94233 -17.01744,-5.60802 c 0,0 -1.4866,12.73371 0.38676,15.27702 1.43447,1.94748 16.82406,5.99478 16.82406,5.99478 7.67074,-1.99826 7.60628,-7.21952 -0.19338,-15.66378 z"
       id="path4-2"
       sodipodi:nodetypes="ccscc" />
    <path
       style="fill:#fff99d;fill-opacity:1;stroke:#7d7d7d;stroke-width:0.2;stroke-linecap:round;stroke-linejoin:round"
       d="m 133.33014,207.94233 c 10.05577,-4.77004 18.0488,-11.98956 23.97913,-21.65856 0,0 4.14525,7.04002 4.64112,8.99217 0.49359,1.94318 -21.32932,29.10981 -28.42687,28.33017"
       id="path5-4"
       sodipodi:nodetypes="ccsc" />
    <path
       style="fill:none;stroke:#7d7d7d;stroke-width:0.2;stroke-linecap:round;stroke-linejoin:round;stroke-dasharray:none;stroke-opacity:1"
       d="m 133.33014,207.94233 c 0,0 0.93475,5.5146 0.95088,8.29898 0.0143,2.46784 -0.7575,7.3648 -0.7575,7.3648"
       id="path6"
       sodipodi:nodetypes="cac" />
    <path
       style="fill:#fff99d;fill-opacity:1;stroke:#7d7d7d;stroke-width:0.2;stroke-linecap:round;stroke-linejoin:round;stroke-dasharray:none;stroke-opacity:1"
       d="m 114.47765,221.18073 14.69688,3.96429 -3.33924,7.94718 -16.48222,-5.72331 z"
       id="path7"
       sodipodi:nodetypes="ccccc" />
    <path
       style="fill:#fff99d;fill-opacity:1;stroke:#7d7d7d;stroke-width:0.2;stroke-linecap:round;stroke-linejoin:round;stroke-dasharray:none;stroke-opacity:1"
       d="m 125.83529,233.0922 0.63192,1.52844 -17.06579,-6.26897 -0.0483,-0.98278 z"
       id="path8"
       sodipodi:nodetypes="ccccc" />
    <path
       style="fill:#fff99d;fill-opacity:1;stroke:#7d7d7d;stroke-width:0.2;stroke-linecap:round;stroke-linejoin:round;stroke-dasharray:none;stroke-opacity:1"
       d="m 129.17453,225.14502 1.24323,0.72174 -3.95055,8.75388 -0.63192,-1.52844 z"
       id="path9"
       sodipodi:nodetypes="ccccc" />
    <g
       id="g10"
       inkscape:label="BUTTER TEXT ON PATH"
       transform="matrix(1.1957755,0,0,1.1957755,-11.584796,4.5167833)">
      <path
         style="display:none;fill:none;fill-opacity:1;stroke:#161616;stroke-width:0.2;stroke-linecap:round;stroke-linejoin:round;stroke-dasharray:none;stroke-opacity:1"
         d="m 118.14365,167.5069 c 0,0 7.73883,-3.96513 10.93922,-6.83701 2.63321,-2.36293 6.56354,-8.34116 6.56354,-8.34116"
         id="path10"
         sodipodi:nodetypes="cac"
         inkscape:label="path" />
      <text
         xml:space="preserve"
         id="text10"
         style="font-style:italic;font-weight:bold;font-size:4.93889px;font-family:Candara;-inkscape-font-specification:'Candara, Bold Italic';text-align:start;letter-spacing:1.19062px;writing-mode:lr-tb;direction:ltr;text-anchor:start;white-space:pre;display:inline;fill:#fff99d;fill-opacity:1;stroke:#161616;stroke-width:0.256;stroke-linecap:round;stroke-linejoin:round;stroke-dasharray:none;stroke-opacity:1"
         inkscape:label="BUTTER_text"><textPath
           xlink:href="#path10"
           id="textPath10"
           style="font-size:4.93889px;stroke-width:0.256;stroke-dasharray:none">BUTTER</textPath></text>
    </g>
  </g>
</svg>
