<?xml version="1.0" encoding="UTF-8" standalone="no"?>
<!-- Created with Inkscape (http://www.inkscape.org/) -->

<svg
   width="210mm"
   height="297mm"
   viewBox="0 0 210 297"
   version="1.1"
   id="svg1"
   inkscape:version="1.4.2 (f4327f4, 2025-05-13)"
   sodipodi:docname="flour.svg"
   xmlns:inkscape="http://www.inkscape.org/namespaces/inkscape"
   xmlns:sodipodi="http://sodipodi.sourceforge.net/DTD/sodipodi-0.dtd"
   xmlns:xlink="http://www.w3.org/1999/xlink"
   xmlns="http://www.w3.org/2000/svg"
   xmlns:svg="http://www.w3.org/2000/svg">
  <sodipodi:namedview
     id="namedview1"
     pagecolor="#ffffff"
     bordercolor="#000000"
     borderopacity="0.25"
     inkscape:showpageshadow="2"
     inkscape:pageopacity="0.0"
     inkscape:pagecheckerboard="0"
     inkscape:deskcolor="#d1d1d1"
     inkscape:document-units="mm"
     inkscape:zoom="0.684102"
     inkscape:cx="237.53768"
     inkscape:cy="585.43901"
     inkscape:window-width="1366"
     inkscape:window-height="745"
     inkscape:window-x="-8"
     inkscape:window-y="-8"
     inkscape:window-maximized="1"
     inkscape:current-layer="layer1" />
  <defs
     id="defs1">
    <rect
       x="150.56234"
       y="520.39023"
       width="425.37516"
       height="245.57741"
       id="rect14" />
  </defs>
  <g
     inkscape:label="Layer 1"
     inkscape:groupmode="layer"
     id="layer1">
    <path
       style="fill:#ffffff;stroke:#000000;stroke-width:0.600001;stroke-linecap:round;stroke-linejoin:round"
       d="m 147.1622,115.06112 c 0,0 27.02893,60.25241 14.50351,85.66735 -14.11231,28.63484 -46.22433,27.49313 -78.125537,26.29969 -26.947631,-1.00813 -46.903542,-7.03747 -56.853729,-32.10109 -10.696575,-26.94371 17.017444,-79.86595 17.017444,-79.86595 z"
       id="path4"
       inkscape:label="bag"
       sodipodi:nodetypes="cssscc"
       inkscape:export-filename="flour.png"
       inkscape:export-xdpi="338.67725"
       inkscape:export-ydpi="338.67725" />
    <ellipse
       style="fill:#ffffff;stroke:#000000;stroke-width:0.600001;stroke-linecap:round;stroke-linejoin:round"
       id="path2"
       cx="95.433044"
       cy="115.06112"
       rx="51.729156"
       ry="17.017443" />
    <ellipse
       style="fill:#ffffff;stroke:#000000;stroke-width:0.600001;stroke-linecap:round;stroke-linejoin:round"
       id="path1"
       cx="94.9496"
       cy="110.61338"
       rx="44.477409"
       ry="6.9616809"
       inkscape:label="above" />
    <path
       style="fill:#ffffff;stroke:#000000;stroke-width:0.583887;stroke-linecap:round;stroke-linejoin:round"
       d="m 79.234114,88.221741 c 8.001361,1.02162 14.800813,-10.680267 20.611247,-10.102988 17.712109,1.759739 34.078239,35.848967 34.078239,35.848967 -23.23121,12.59068 -49.355726,6.97912 -75.754124,0.56015 6.27708,-9.18362 7.902082,-25.069253 21.064638,-26.306129 z"
       id="path3"
       sodipodi:nodetypes="ssccs"
       inkscape:label="flour" />
    <path
       style="fill:#ffffff;stroke:#000000;stroke-width:0.600001;stroke-linecap:round;stroke-linejoin:round"
       d="m 105.57017,227.47898 c -9.833484,-1.14774 -18.702205,-3.09946 -22.416757,-9.34631"
       id="path5"
       sodipodi:nodetypes="cc" />
    <path
       style="fill:#ffffff;stroke:#000000;stroke-width:0.600001;stroke-linecap:round;stroke-linejoin:round"
       d="m 126.51067,225.64012 c -9.55346,-1.9868 -16.01283,-5.26281 -19.37813,-9.82801"
       id="path6"
       sodipodi:nodetypes="cc" />
    <path
       style="fill:#ffffff;stroke:#000000;stroke-width:0.600001;stroke-linecap:round;stroke-linejoin:round"
       d="m 73.22323,226.33238 c -6.562334,-1.88579 -11.590401,-4.25806 -12.888661,-7.81295"
       id="path7"
       sodipodi:nodetypes="cc" />
    <path
       style="fill:#ffffff;stroke:#000000;stroke-width:0.600001;stroke-linecap:round;stroke-linejoin:round"
       d="m 25.848133,164.70074 c 0.247046,9.80296 0.381626,19.71839 7.379768,22.77025"
       id="path8"
       sodipodi:nodetypes="cc" />
    <text
       xml:space="preserve"
       id="text14"
       style="font-style:italic;font-weight:bold;font-size:35.2777px;font-family:Candara;-inkscape-font-specification:'Candara, Bold Italic';text-align:start;letter-spacing:0px;writing-mode:lr-tb;direction:ltr;text-anchor:start;white-space:pre;display:inline;fill:#ffffff;stroke:#000000;stroke-width:2.26772;stroke-linecap:round;stroke-linejoin:round"><textPath
         xlink:href="#path14"
         id="textPath14">FLOUR</textPath></text>
    <path
       style="display:none;fill:none;fill-opacity:1;stroke:#00ff11;stroke-width:0.600001;stroke-linecap:round;stroke-linejoin:round;stroke-opacity:1"
       d="m 44.254078,175.628 c 0,0 30.668005,5.78493 47.665332,6.45693 18.63609,0.73679 50.5717,-4.52312 50.5717,-4.52312"
       id="path14"
       sodipodi:nodetypes="csc" />
    <path
       style="fill:none;fill-opacity:1;stroke:#000000;stroke-width:0.2;stroke-linecap:round;stroke-linejoin:round;stroke-opacity:1;stroke-dasharray:none"
       d="m 18.757863,43.510506 c 5.068299,-1.419547 10.077323,-3.019356 15.083641,-4.641119 2.385288,-0.7727 4.726739,-1.696136 7.155061,-2.320563 2.093936,-0.53844 4.242642,-0.844703 6.381541,-1.16028 5.59294,-0.825188 8.386778,-0.924038 13.149842,1.933803 0.684273,0.410562 1.542661,0.769138 2.127181,1.353658"
       id="path15" />
    <g
       id="g29"
       inkscape:label="texturita uwu">
      <path
         style="fill:none;fill-opacity:1;stroke:#7d7d7d;stroke-width:0.2;stroke-linecap:round;stroke-linejoin:round;stroke-dasharray:none;stroke-opacity:1"
         d="m 94.077347,92.162983 c 1.386811,0.693404 0.556331,0.256157 2.461326,1.367401"
         id="path16" />
      <path
         style="fill:none;fill-opacity:1;stroke:#7d7d7d;stroke-width:0.2;stroke-linecap:round;stroke-linejoin:round;stroke-dasharray:none;stroke-opacity:1"
         d="m 95.308009,87.37707 c 1.321824,0.364641 2.643648,0.729282 3.965471,1.093923"
         id="path17" />
      <path
         style="fill:none;fill-opacity:1;stroke:#7d7d7d;stroke-width:0.2;stroke-linecap:round;stroke-linejoin:round;stroke-dasharray:none;stroke-opacity:1"
         d="m 94.487568,102.96547 c 2.051105,0.13674 4.102211,0.27348 6.153312,0.41022"
         id="path18" />
      <path
         style="fill:none;fill-opacity:1;stroke:#7d7d7d;stroke-width:0.2;stroke-linecap:round;stroke-linejoin:round;stroke-dasharray:none;stroke-opacity:1"
         d="m 77.668508,98.042816 c 1.334939,0.646295 2.373939,1.802302 3.691988,2.461324"
         id="path19" />
      <path
         style="fill:none;fill-opacity:1;stroke:#7d7d7d;stroke-width:0.2;stroke-linecap:round;stroke-linejoin:round;stroke-dasharray:none;stroke-opacity:1"
         d="m 72.609116,102.41851 c 2.142112,1.05542 4.419399,3.28177 6.700274,3.28177"
         id="path20" />
      <path
         style="fill:none;fill-opacity:1;stroke:#7d7d7d;stroke-width:0.2;stroke-linecap:round;stroke-linejoin:round;stroke-dasharray:none;stroke-opacity:1"
         d="m 84.505524,111.44337 c 4.984742,1.31949 3.17569,0.59917 5.606354,1.64088"
         id="path21" />
      <path
         style="fill:none;fill-opacity:1;stroke:#7d7d7d;stroke-width:0.2;stroke-linecap:round;stroke-linejoin:round;stroke-dasharray:none;stroke-opacity:1"
         d="m 106.1105,113.22099 c 3.88606,-1.24354 2.30765,-0.64958 4.78591,-1.64088"
         id="path22" />
      <path
         style="fill:none;fill-opacity:1;stroke:#7d7d7d;stroke-width:0.2;stroke-linecap:round;stroke-linejoin:round;stroke-dasharray:none;stroke-opacity:1"
         d="m 115.40884,113.49447 c 3.06377,-1.17837 1.25264,-0.32671 5.19613,-3.00828"
         id="path23" />
      <path
         style="fill:none;fill-opacity:1;stroke:#7d7d7d;stroke-width:0.2;stroke-linecap:round;stroke-linejoin:round;stroke-dasharray:none;stroke-opacity:1"
         d="m 112.67403,104.46961 c 3.56108,-1.85795 2.11138,-1.06663 4.37569,-2.32458"
         id="path24" />
      <path
         style="fill:none;fill-opacity:1;stroke:#7d7d7d;stroke-width:0.2;stroke-linecap:round;stroke-linejoin:round;stroke-dasharray:none;stroke-opacity:1"
         d="m 105.15331,95.718232 c 3.54961,-0.934109 1.72691,-0.476284 5.46962,-1.367404"
         id="path25" />
      <path
         style="fill:none;fill-opacity:1;stroke:#7d7d7d;stroke-width:0.2;stroke-linecap:round;stroke-linejoin:round;stroke-dasharray:none;stroke-opacity:1"
         d="m 106.93094,87.787291 c 2.10588,1.7819 1.1194,1.092758 2.87154,2.187845"
         id="path26" />
      <path
         style="fill:none;fill-opacity:1;stroke:#7d7d7d;stroke-width:0.2;stroke-linecap:round;stroke-linejoin:round;stroke-dasharray:none;stroke-opacity:1"
         d="m 84.642263,91.34254 c -0.136739,0.546962 -0.273479,1.093922 -0.41022,1.640885"
         id="path27" />
      <path
         style="fill:none;fill-opacity:1;stroke:#7d7d7d;stroke-width:0.2;stroke-linecap:round;stroke-linejoin:round;stroke-dasharray:none;stroke-opacity:1"
         d="m 77.258287,92.162983 c -2.087036,0.521759 -0.401272,0.01802 -4.23895,3.145026"
         id="path28" />
      <path
         style="fill:none;fill-opacity:1;stroke:#7d7d7d;stroke-width:0.2;stroke-linecap:round;stroke-linejoin:round;stroke-dasharray:none;stroke-opacity:1"
         d="m 66.182319,106.65746 c 2.419641,3.78068 1.470816,2.27126 2.871549,4.51243"
         id="path29" />
    </g>
  </g>
</svg>
