<?xml version="1.0" encoding="UTF-8" standalone="no"?>
<!-- Created with Inkscape (http://www.inkscape.org/) -->

<svg
   width="210mm"
   height="297mm"
   viewBox="0 0 210 297"
   version="1.1"
   id="svg1"
   inkscape:version="1.4.2 (f4327f4, 2025-05-13)"
   sodipodi:docname="if CFG.svg"
   xmlns:inkscape="http://www.inkscape.org/namespaces/inkscape"
   xmlns:sodipodi="http://sodipodi.sourceforge.net/DTD/sodipodi-0.dtd"
   xmlns="http://www.w3.org/2000/svg"
   xmlns:svg="http://www.w3.org/2000/svg">
  <sodipodi:namedview
     id="namedview1"
     pagecolor="#ffffff"
     bordercolor="#000000"
     borderopacity="0.25"
     inkscape:showpageshadow="2"
     inkscape:pageopacity="0.0"
     inkscape:pagecheckerboard="0"
     inkscape:deskcolor="#d1d1d1"
     inkscape:document-units="mm"
     showguides="true"
     inkscape:zoom="0.342051"
     inkscape:cx="749.88817"
     inkscape:cy="92.09153"
     inkscape:window-width="1366"
     inkscape:window-height="745"
     inkscape:window-x="-8"
     inkscape:window-y="-8"
     inkscape:window-maximized="1"
     inkscape:current-layer="layer1">
    <sodipodi:guide
       position="109.39227,273.48066"
       orientation="1,0"
       id="guide1"
       inkscape:locked="false" />
    <sodipodi:guide
       position="94.369453,211.13927"
       orientation="0,-1"
       id="guide2"
       inkscape:locked="false" />
  </sodipodi:namedview>
  <defs
     id="defs1">
    <rect
       x="264.94587"
       y="581.0537"
       width="103.42025"
       height="52.989174"
       id="rect39" />
    <rect
       x="239.73033"
       y="297.47026"
       width="372.02055"
       height="100.86216"
       id="rect3" />
    <rect
       x="260.19512"
       y="278.46725"
       width="240.46122"
       height="60.663468"
       id="rect2" />
    <rect
       x="239.73033"
       y="297.47026"
       width="372.02055"
       height="100.86216"
       id="rect13" />
    <rect
       x="239.73033"
       y="297.47026"
       width="372.02055"
       height="100.86216"
       id="rect21" />
    <rect
       x="239.73033"
       y="297.47025"
       width="372.02054"
       height="100.86216"
       id="rect21-4" />
    <rect
       x="239.73033"
       y="297.47025"
       width="372.02054"
       height="100.86216"
       id="rect21-4-7" />
    <rect
       x="264.94587"
       y="581.0537"
       width="103.42025"
       height="52.989174"
       id="rect40" />
    <rect
       x="264.94587"
       y="581.0537"
       width="103.42025"
       height="52.989174"
       id="rect41" />
    <rect
       x="264.94587"
       y="581.0537"
       width="103.42025"
       height="52.989174"
       id="rect42" />
  </defs>
  <g
     inkscape:label="Layer 1"
     inkscape:groupmode="layer"
     id="layer1">
    <path
       style="fill:#eaea8e;fill-opacity:1;stroke:#d963bc;stroke-width:1.89771;stroke-linecap:round;stroke-linejoin:round;stroke-opacity:1"
       d="m 109.52901,91.21603 -48.466633,27.98233 48.466633,27.9823 48.46663,-27.9823 z"
       id="path2"
       inkscape:export-filename="if CFG.png"
       inkscape:export-xdpi="420.32208"
       inkscape:export-ydpi="420.32208" />
    <text
       xml:space="preserve"
       transform="matrix(0.20920979,0,0,0.20920979,21.147993,50.389505)"
       id="text3"
       style="font-style:italic;font-size:48px;font-family:Constantia;-inkscape-font-specification:'Constantia Italic';text-align:center;letter-spacing:4.5px;writing-mode:lr-tb;direction:ltr;white-space:pre;shape-inside:url(#rect3);display:inline;fill:#000000;fill-opacity:1;stroke:none;stroke-width:9.07087;stroke-linecap:round;stroke-linejoin:round;stroke-dasharray:none"><tspan
         x="254.45888"
         y="339.51758"
         id="tspan10"><tspan
           style="font-size:42.6667px"
           id="tspan7">Is </tspan><tspan
           style="font-size:42.6667px;fill:#050071"
           id="tspan8">my_age &lt; 18</tspan><tspan
           style="font-size:42.6667px"
           id="tspan9">? </tspan></tspan></text>
    <ellipse
       style="fill:none;stroke:#2300d9;stroke-width:1.89771;stroke-linecap:round;stroke-linejoin:round;stroke-opacity:1"
       id="path1"
       cx="109.90199"
       cy="106.2332"
       rx="9.1904135"
       ry="7.1360865" />
    <g
       id="g27"
       inkscape:label="7_outline"
       style="display:inline;fill:none;stroke:#000000;stroke-width:1.6;stroke-dasharray:none;stroke-opacity:1"
       transform="translate(0,33.337515)">
      <path
         style="fill:none;stroke:#000000;stroke-width:1.6;stroke-linecap:round;stroke-linejoin:round;stroke-dasharray:none;stroke-opacity:1"
         d="m 107.17804,69.174612 h 5.5047 l -2.14417,8.002157"
         id="path3" />
      <path
         style="fill:none;stroke:#000000;stroke-width:1.6;stroke-linecap:round;stroke-linejoin:round;stroke-dasharray:none;stroke-opacity:1"
         d="m 111.87014,72.207282 h -3.46883"
         id="path4" />
    </g>
    <g
       id="g28"
       inkscape:label="7_fill"
       style="display:inline"
       transform="translate(0,33.337515)">
      <path
         style="fill:none;stroke:#2300d9;stroke-width:1.26514;stroke-linecap:round;stroke-linejoin:round;stroke-dasharray:none;stroke-opacity:1"
         d="m 107.17804,69.174612 h 5.5047 l -2.14417,8.002157"
         id="path27" />
      <path
         style="fill:none;stroke:#2300d9;stroke-width:1.26514;stroke-linecap:round;stroke-linejoin:round;stroke-dasharray:none;stroke-opacity:1"
         d="m 111.87014,72.207282 h -3.46883"
         id="path28" />
    </g>
    <path
       style="fill:none;stroke:#2300d9;stroke-width:0.790714;stroke-linecap:round;stroke-linejoin:round;stroke-dasharray:none;stroke-opacity:1"
       d="m 103.18331,90.967552 v 6.001656 h 4.28144"
       id="path5" />
    <path
       style="fill:none;stroke:#2300d9;stroke-width:0.790714;stroke-linecap:round;stroke-linejoin:round;stroke-dasharray:none;stroke-opacity:1"
       d="m 110.06419,96.892748 c 0,0 0.42654,-2.75641 3.09639,-2.331849 2.41753,0.384437 2.21718,2.522989 2.21718,2.522989"
       id="path6"
       sodipodi:nodetypes="csc" />
    <path
       style="fill:#eaea8e;fill-opacity:1;stroke:#d963bc;stroke-width:1.12693;stroke-linecap:round;stroke-linejoin:round;stroke-opacity:1"
       d="m 109.17078,10.363925 c -11.077915,-10e-7 -28.78127,5.538956 -28.78127,16.616871 0,11.077915 17.703355,16.616871 28.78127,16.61687 11.07791,-10e-7 28.78126,-5.538958 28.78126,-16.61687 0,-11.077913 -17.70335,-16.61687 -28.78126,-16.616871 z"
       id="path15"
       sodipodi:nodetypes="sssss" />
    <text
       xml:space="preserve"
       transform="matrix(0.12423646,0,0,0.12423646,56.976953,-10.59816)"
       id="text18"
       style="font-style:italic;font-size:31.2352px;font-family:Constantia;-inkscape-font-specification:'Constantia Italic';text-align:center;letter-spacing:4.5px;writing-mode:lr-tb;direction:ltr;white-space:pre;shape-inside:url(#rect21);display:inline;fill:#000000;fill-opacity:1;stroke:none;stroke-width:9.07087;stroke-linecap:round;stroke-linejoin:round;stroke-dasharray:none"><tspan
         x="252.13984"
         y="324.83201"
         id="tspan12">print(<tspan
   style="fill:#050071"
   id="tspan11">&quot;Hey! How old </tspan></tspan><tspan
         x="338.93241"
         y="363.87601"
         id="tspan14"><tspan
   style="fill:#050071"
   id="tspan13">are you?&quot;</tspan>)</tspan></text>
    <ellipse
       style="fill:none;stroke:#2300d9;stroke-width:1.12693;stroke-linecap:round;stroke-linejoin:round;stroke-opacity:1"
       id="ellipse18"
       cx="109.39227"
       cy="19.810837"
       rx="5.4576049"
       ry="4.2376704" />
    <path
       style="fill:none;stroke:#2300d9;stroke-width:0.469555;stroke-linecap:round;stroke-linejoin:round;stroke-dasharray:none;stroke-opacity:1"
       d="m 105.40247,10.745537 v 3.564003 h 2.54248"
       id="path20" />
    <path
       style="fill:none;stroke:#2300d9;stroke-width:0.469555;stroke-linecap:round;stroke-linejoin:round;stroke-dasharray:none;stroke-opacity:1"
       d="m 109.48859,14.264138 c 0,0 0.25329,-1.636859 1.83875,-1.38474 1.43562,0.228293 1.31664,1.498243 1.31664,1.498243"
       id="path21"
       sodipodi:nodetypes="csc" />
    <path
       style="baseline-shift:baseline;display:inline;overflow:visible;fill:#2300d9;stroke-linecap:round;stroke-linejoin:round;enable-background:accumulate;stop-color:#000000;stop-opacity:1;opacity:1;stroke:#000000;stroke-opacity:1;stroke-width:0.2;stroke-dasharray:none"
       d="m 110.51953,16.923828 a 0.50005,0.50005 0 0 0 -0.5,0.492188 v 1.824218 h -1.59765 v -1.6875 a 0.5,0.5 0 0 0 -0.5,-0.5 0.5,0.5 0 0 0 -0.5,0.5 v 2.1875 a 0.50005,0.50005 0 0 0 0.5,0.5 h 2.09765 v 1.927735 a 0.5,0.5 0 0 0 0.5,0.5 0.5,0.5 0 0 0 0.5,-0.5 v -2.427735 -2.324218 a 0.50005,0.50005 0 0 0 -0.5,-0.492188 z"
       id="path22" />
    <path
       style="fill:#eaea8e;fill-opacity:1;stroke:#d963bc;stroke-width:1.12693;stroke-linecap:round;stroke-linejoin:round;stroke-opacity:1"
       d="m 41.692401,156.75207 c -11.07792,-1e-5 -28.781273,5.53895 -28.781273,16.61687 0,11.07791 17.703353,16.61687 28.781273,16.61687 11.07791,0 28.78126,-5.53896 28.78126,-16.61687 0,-11.07792 -17.70335,-16.61687 -28.78126,-16.61687 z"
       id="path15-2"
       sodipodi:nodetypes="sssss" />
    <text
       xml:space="preserve"
       transform="matrix(0.12423646,0,0,0.12423646,-10.552707,135.41394)"
       id="text18-4"
       style="font-style:italic;font-size:31.2352px;font-family:Constantia;-inkscape-font-specification:'Constantia Italic';text-align:center;letter-spacing:4.5px;writing-mode:lr-tb;direction:ltr;white-space:pre;shape-inside:url(#rect21-4);display:inline;fill:#000000;fill-opacity:1;stroke:none;stroke-width:9.07087;stroke-linecap:round;stroke-linejoin:round;stroke-dasharray:none"><tspan
         x="252.78764"
         y="324.83201"
         id="tspan16">print(<tspan
   style="fill:#050071"
   id="tspan15">&quot;You shall not </tspan></tspan><tspan
         x="367.5074"
         y="363.87601"
         id="tspan18"><tspan
   style="fill:#050071"
   id="tspan17">pass!&quot;</tspan>)</tspan></text>
    <ellipse
       style="fill:none;stroke:#2300d9;stroke-width:1.12693;stroke-linecap:round;stroke-linejoin:round;stroke-opacity:1"
       id="ellipse18-1"
       cx="41.86261"
       cy="165.82228"
       rx="5.4576049"
       ry="4.2376704" />
    <path
       style="fill:none;stroke:#2300d9;stroke-width:0.469555;stroke-linecap:round;stroke-linejoin:round;stroke-dasharray:none;stroke-opacity:1"
       d="m 37.872813,156.75764 v 3.564 h 2.54248"
       id="path20-7" />
    <path
       style="fill:none;stroke:#2300d9;stroke-width:0.469555;stroke-linecap:round;stroke-linejoin:round;stroke-dasharray:none;stroke-opacity:1"
       d="m 41.958933,160.27624 c 0,0 0.25329,-1.63686 1.83875,-1.38474 1.43562,0.22829 1.31664,1.49824 1.31664,1.49824"
       id="path21-1"
       sodipodi:nodetypes="csc" />
    <path
       style="fill:#eaea8e;fill-opacity:1;stroke:#d963bc;stroke-width:1.12693;stroke-linecap:round;stroke-linejoin:round;stroke-opacity:1"
       d="m 164.29248,157.78682 c -11.07792,-1e-5 -28.78127,5.53895 -28.78127,16.61687 0,11.07791 17.70335,16.61687 28.78127,16.61687 11.07791,0 28.78126,-5.53896 28.78126,-16.61687 0,-11.07792 -17.70335,-16.61687 -28.78126,-16.61687 z"
       id="path15-2-4"
       sodipodi:nodetypes="sssss" />
    <text
       xml:space="preserve"
       transform="matrix(0.12423646,0,0,0.12423646,112.09865,136.82473)"
       id="text18-4-2"
       style="font-style:italic;font-size:31.2352px;font-family:Constantia;-inkscape-font-specification:'Constantia Italic';text-align:center;letter-spacing:4.5px;writing-mode:lr-tb;direction:ltr;white-space:pre;shape-inside:url(#rect21-4-7);display:inline;fill:#000000;fill-opacity:1;stroke:none;stroke-width:9.07087;stroke-linecap:round;stroke-linejoin:round;stroke-dasharray:none"><tspan
         x="262.90022"
         y="324.83201"
         id="tspan20">print(<tspan
   style="fill:#050071"
   id="tspan19">&quot;Please come </tspan></tspan><tspan
         x="366.78256"
         y="363.87601"
         id="tspan22"><tspan
   style="fill:#050071"
   id="tspan21">in! :3&quot;</tspan>)</tspan></text>
    <ellipse
       style="fill:none;stroke:#2300d9;stroke-width:1.38273;stroke-linecap:round;stroke-linejoin:round;stroke-opacity:1"
       id="ellipse18-1-6"
       cx="164.51398"
       cy="167.23308"
       rx="8.4721308"
       ry="4.1097703" />
    <path
       style="fill:none;stroke:#2300d9;stroke-width:0.469555;stroke-linecap:round;stroke-linejoin:round;stroke-dasharray:none;stroke-opacity:1"
       d="m 160.52417,158.16843 v 3.564 h 2.54248"
       id="path20-7-8" />
    <path
       style="fill:none;stroke:#2300d9;stroke-width:0.469555;stroke-linecap:round;stroke-linejoin:round;stroke-dasharray:none;stroke-opacity:1"
       d="m 164.61029,161.68703 c 0,0 0.25329,-1.63686 1.83875,-1.38474 1.43562,0.22829 1.31664,1.49824 1.31664,1.49824"
       id="path21-1-5"
       sodipodi:nodetypes="csc" />
    <g
       id="g24"
       inkscape:label="10_outline"
       transform="translate(0,33.337515)">
      <path
         style="baseline-shift:baseline;display:inline;overflow:visible;opacity:1;fill:#2300d9;stroke:#000000;stroke-width:0.3;stroke-linecap:round;stroke-linejoin:round;stroke-dasharray:none;stroke-opacity:1;enable-background:accumulate;stop-color:#000000;stop-opacity:1"
         d="m 162.44922,130.61328 a 0.50005,0.50005 0 0 0 -0.54492,0.10938 l -1.75196,1.75195 a 0.5,0.5 0 0 0 0,0.70703 0.5,0.5 0 0 0 0.70703,0 l 0.89844,-0.89844 v 4.38867 a 0.5,0.5 0 0 0 0.5,0.5 0.5,0.5 0 0 0 0.5,-0.5 v -5.5957 a 0.50005,0.50005 0 0 0 -0.30859,-0.46289 z"
         id="path23" />
      <path
         style="baseline-shift:baseline;display:inline;overflow:visible;opacity:1;fill:#2300d9;stroke:#000000;stroke-width:0.3;stroke-linecap:round;stroke-linejoin:round;stroke-dasharray:none;stroke-opacity:1;enable-background:accumulate;stop-color:#000000;stop-opacity:1"
         d="m 166.52344,130.61133 c -0.6507,0 -1.12509,0.49432 -1.41992,1.08398 -0.29484,0.58967 -0.45703,1.34337 -0.45704,2.17188 0,0.82851 0.1622,1.5822 0.45704,2.17187 0.29483,0.58967 0.76922,1.08398 1.41992,1.08399 0.6507,-1e-5 1.12704,-0.49432 1.42187,-1.08399 0.29484,-0.58967 0.45703,-1.34336 0.45703,-2.17187 0,-0.82851 -0.16219,-1.58221 -0.45703,-2.17188 -0.29483,-0.58966 -0.77118,-1.08398 -1.42187,-1.08398 z m 0,1 c 0.11026,0 0.3235,0.12356 0.52734,0.53125 0.20384,0.40768 0.35156,1.03121 0.35156,1.72461 0,0.6934 -0.14772,1.31692 -0.35156,1.72461 -0.20384,0.40769 -0.41708,0.53125 -0.52734,0.53125 -0.11026,0 -0.32155,-0.12356 -0.52539,-0.53125 -0.20385,-0.40769 -0.35157,-1.03121 -0.35157,-1.72461 1e-5,-0.6934 0.14772,-1.31693 0.35157,-1.72461 0.20384,-0.40769 0.41513,-0.53125 0.52539,-0.53125 z"
         id="path24" />
    </g>
    <g
       id="g26"
       inkscape:label="10_fill"
       transform="translate(0,33.337515)">
      <path
         style="baseline-shift:baseline;display:inline;overflow:visible;opacity:1;fill:#190098;fill-opacity:1;stroke:none;stroke-width:0.3;stroke-linecap:round;stroke-linejoin:round;stroke-dasharray:none;stroke-opacity:1;enable-background:accumulate;stop-color:#000000;stop-opacity:1"
         d="m 162.44922,130.61328 a 0.50005,0.50005 0 0 0 -0.54492,0.10938 l -1.75196,1.75195 a 0.5,0.5 0 0 0 0,0.70703 0.5,0.5 0 0 0 0.70703,0 l 0.89844,-0.89844 v 4.38867 a 0.5,0.5 0 0 0 0.5,0.5 0.5,0.5 0 0 0 0.5,-0.5 v -5.5957 a 0.50005,0.50005 0 0 0 -0.30859,-0.46289 z"
         id="path25" />
      <path
         style="baseline-shift:baseline;display:inline;overflow:visible;opacity:1;fill:#190098;fill-opacity:1;stroke:none;stroke-width:0.3;stroke-linecap:round;stroke-linejoin:round;stroke-dasharray:none;stroke-opacity:1;enable-background:accumulate;stop-color:#000000;stop-opacity:1"
         d="m 166.52344,130.61133 c -0.6507,0 -1.12509,0.49432 -1.41992,1.08398 -0.29484,0.58967 -0.45703,1.34337 -0.45704,2.17188 0,0.82851 0.1622,1.5822 0.45704,2.17187 0.29483,0.58967 0.76922,1.08398 1.41992,1.08399 0.6507,-1e-5 1.12704,-0.49432 1.42187,-1.08399 0.29484,-0.58967 0.45703,-1.34336 0.45703,-2.17187 0,-0.82851 -0.16219,-1.58221 -0.45703,-2.17188 -0.29483,-0.58966 -0.77118,-1.08398 -1.42187,-1.08398 z m 0,1 c 0.11026,0 0.3235,0.12356 0.52734,0.53125 0.20384,0.40768 0.35156,1.03121 0.35156,1.72461 0,0.6934 -0.14772,1.31692 -0.35156,1.72461 -0.20384,0.40769 -0.41708,0.53125 -0.52734,0.53125 -0.11026,0 -0.32155,-0.12356 -0.52539,-0.53125 -0.20385,-0.40769 -0.35157,-1.03121 -0.35157,-1.72461 1e-5,-0.6934 0.14772,-1.31693 0.35157,-1.72461 0.20384,-0.40769 0.41513,-0.53125 0.52539,-0.53125 z"
         id="path26" />
    </g>
    <path
       style="fill:none;stroke:#000000;stroke-width:0.5;stroke-linecap:round;stroke-linejoin:round;stroke-dasharray:none;stroke-opacity:1"
       d="m 42.014744,165.81648 c 0.500665,-0.6642 1.794204,-1.27313 1.450351,-2.03049 -0.44182,-0.97314 -2.658413,-1.24095 -3.190772,-0.31424 -0.876704,1.52613 3.908093,2.71806 3.094083,4.27853 -0.439801,0.84311 -2.446346,0.81159 -2.852357,-0.0483 -0.342792,-0.726 1.015428,-1.24438 1.498695,-1.8855 z"
       id="path31"
       sodipodi:nodetypes="ssssss"
       inkscape:label="8_outline" />
    <path
       style="fill:none;stroke:#1f007f;stroke-width:0.3;stroke-linecap:round;stroke-linejoin:round;stroke-dasharray:none;stroke-opacity:1"
       d="m 42.014744,165.81648 c 0.500665,-0.6642 1.794204,-1.27313 1.450351,-2.03049 -0.44182,-0.97314 -2.658413,-1.24095 -3.190772,-0.31424 -0.876704,1.52613 3.908093,2.71806 3.094083,4.27853 -0.439801,0.84311 -2.446346,0.81159 -2.852357,-0.0483 -0.342792,-0.726 1.015428,-1.24438 1.498695,-1.8855 z"
       id="path29"
       sodipodi:nodetypes="ssssss"
       inkscape:label="8" />
    <g
       id="g37"
       transform="matrix(0.87924429,0,0,0.87924429,14.708226,44.727321)"
       style="stroke-width:0.90987227;stroke-dasharray:none">
      <g
         id="g36"
         style="stroke-width:0.90987227;stroke-dasharray:none">
        <path
           style="fill:#190098;fill-opacity:1;stroke:#000000;stroke-width:0.90987227;stroke-linecap:round;stroke-linejoin:round;stroke-dasharray:none;stroke-opacity:1"
           d="m 134.82597,106.93094 15.31491,17.6395"
           id="path32" />
        <path
           style="fill:none;fill-opacity:1;stroke:#000000;stroke-width:0.90987227;stroke-linecap:round;stroke-linejoin:round;stroke-dasharray:none;stroke-opacity:1"
           d="m 143.30387,123.61326 c 0,0 5.76284,1.63146 6.83701,0.95718 1.17497,-0.73756 1.77763,-6.15331 1.77763,-6.15331"
           id="path33"
           sodipodi:nodetypes="csc" />
      </g>
    </g>
    <g
       id="g35"
       transform="matrix(0.95700897,0,0,0.95700897,3.4027041,37.712211)"
       style="stroke-width:0.83593783;stroke-dasharray:none">
      <path
         style="fill:none;fill-opacity:1;stroke:#000000;stroke-width:0.83593783;stroke-linecap:round;stroke-linejoin:round;stroke-dasharray:none;stroke-opacity:1"
         d="M 78.89917,102.00829 55.995164,123.40815"
         id="path34" />
      <path
         style="fill:none;fill-opacity:1;stroke:#000000;stroke-width:0.83593783;stroke-linecap:round;stroke-linejoin:round;stroke-dasharray:none;stroke-opacity:1"
         d="m 55.311463,115.47721 c 0,0 -0.01454,7.16797 0.683701,7.93094 0.638658,0.69787 9.503455,-1.43577 9.503455,-1.43577"
         id="path35"
         sodipodi:nodetypes="csc" />
    </g>
    <g
       id="g43"
       inkscape:label="FLECHA"
       style="stroke-width:1.5;stroke-dasharray:none">
      <path
         style="fill:none;fill-opacity:1;stroke:#000000;stroke-width:1.5;stroke-linecap:round;stroke-linejoin:round;stroke-dasharray:none;stroke-opacity:1"
         d="M 109.06634,51.245709 V 80.252712"
         id="path37" />
      <path
         style="fill:none;fill-opacity:1;stroke:#000000;stroke-width:1.5;stroke-linecap:round;stroke-linejoin:round;stroke-dasharray:none;stroke-opacity:1"
         d="m 97.495856,69.327347 c 0,0 9.415054,10.7183 11.570484,10.925365 1.89213,0.18177 10.44471,-10.378403 10.44471,-10.378403"
         id="path38"
         sodipodi:nodetypes="csc" />
    </g>
    <g
       id="g40"
       inkscape:label="True"
       transform="translate(-26.686444,-19.724763)">
      <path
         style="font-style:italic;font-weight:bold;font-size:32px;font-family:Constantia;-inkscape-font-specification:'Constantia Bold Italic';text-align:center;letter-spacing:4.5px;text-anchor:middle;white-space:pre;fill:#30da00;stroke:#000000;stroke-width:1.51181;stroke-linecap:round;stroke-linejoin:round;stroke-dasharray:none;stroke-opacity:1"
         d="m 281.30371,588.86719 -2.23437,4.1875 -0.89063,0.14062 0.64063,-5.85937 0.14062,-0.125 q 1.95313,0.0312 3.75,0.0469 1.8125,0.0156 3.54688,0.0156 h 4.3125 q 1.79687,0 3.65625,-0.0156 1.875,-0.0156 3.84375,-0.0469 l 0.0625,0.125 -2.04688,5.71875 -0.89062,0.14062 -0.20313,-4.32812 h -4.5625 l -2.90625,15.23437 q -0.17187,0.9375 -0.32812,1.70313 -0.14063,0.76562 -0.23438,1.39062 -0.0469,0.39063 0.4375,0.53125 l 2.125,0.60938 -0.125,0.79687 q -2.89062,-0.0469 -5.04687,-0.0469 -2.3125,0 -5.03125,0.0469 l 0.0625,-0.79687 2.35937,-0.64063 q 0.4375,-0.10937 0.53125,-0.48437 0.14063,-0.60938 0.29688,-1.39063 0.15625,-0.78125 0.32812,-1.71875 l 2.92188,-15.23437 z m 18.375,20.29687 2.42188,-11.79687 q 0.125,-0.67188 0.125,-0.82813 0,-0.26562 -0.15625,-0.40625 -0.14063,-0.15625 -0.4375,-0.21875 -0.29688,-0.0781 -0.75,-0.0937 -0.4375,-0.0156 -1.01563,-0.0156 l 0.0937,-0.71875 q 2.78125,-0.71875 4.26563,-0.71875 1.07812,0 1.73437,0.39062 0.65625,0.39063 0.65625,1.15625 0,0.14063 -0.0156,0.34375 2.875,-1.92187 5.76562,-1.92187 l 0.10938,0.14062 q -0.5625,2.45313 -1.07813,5.15625 l -0.96875,0.15625 q -0.28125,-1.70312 -0.6875,-2.3125 -0.40625,-0.625 -1.17187,-0.625 -0.82813,0 -2.20313,0.6875 l -2.32812,11.46875 z m 18.53125,-13.35937 0.0937,-0.71875 q 2.73438,-0.71875 4.54688,-0.71875 1.04687,0 1.60937,0.35937 0.57813,0.35938 0.57813,1.15625 0,0.375 -0.0625,0.64063 l -1.5625,7.09375 q -0.14063,0.6875 -0.14063,1.26562 0,1.0625 0.45313,1.65625 0.46875,0.57813 1.26562,0.57813 1.40625,0 3.35938,-1.78125 l 2.1875,-10.5 4.39062,-0.15625 -2.39062,11.59375 q -0.0937,0.45312 -0.0937,0.73437 0,0.3125 0.10937,0.5 0.125,0.1875 0.40625,0.29688 0.28125,0.0937 0.73438,0.125 0.46875,0.0312 1.15625,0.0469 l -0.0937,0.73438 q -2.73438,0.65625 -4.09375,0.65625 -1.17188,0 -1.85938,-0.53125 -0.67187,-0.54688 -0.67187,-1.54688 0,-0.14062 0.0156,-0.29687 -2.59375,2.53125 -5.10937,2.53125 -1.84375,0 -2.96875,-1.09375 -1.10938,-1.10938 -1.10938,-3.01563 0,-0.42187 0.0469,-0.875 0.0625,-0.45312 0.15625,-0.9375 l 1.28125,-6.21875 q 0.125,-0.60937 0.125,-0.8125 0,-0.42187 -0.375,-0.59375 -0.375,-0.17187 -1.98438,-0.17187 z m 36.39063,10.28125 0.53125,0.78125 q -2.98438,2.60937 -6.625,2.60937 -2.84375,0 -4.59375,-1.54687 -1.75,-1.54688 -1.75,-4.23438 0,-3.98437 2.84375,-6.67187 2.84375,-2.6875 6.89062,-2.6875 2.25,0 3.46875,0.82812 1.21875,0.8125 1.21875,2.375 0,1.95313 -2.5,3.26563 -2.5,1.29687 -7.375,1.53125 -0.0312,0.375 -0.0312,0.70312 0,2.10938 0.85938,3.21875 0.85937,1.09375 2.57812,1.09375 2.21875,0 4.48438,-1.26562 z m -7.76563,-5 q 5.40625,-0.5 5.40625,-3.48438 0,-0.82812 -0.39062,-1.23437 -0.375,-0.42188 -0.96875,-0.42188 -1.28125,0 -2.4375,1.4375 -1.15625,1.42188 -1.60938,3.70313 z"
         id="text40"
         inkscape:label="True_outline"
         transform="scale(0.26458333)"
         aria-label="True" />
      <text
         xml:space="preserve"
         transform="scale(0.26458333)"
         id="text39"
         style="font-style:italic;font-size:32px;font-family:Constantia;-inkscape-font-specification:'Constantia Italic';text-align:center;letter-spacing:4.5px;writing-mode:lr-tb;direction:ltr;white-space:pre;shape-inside:url(#rect39);display:inline;fill:none;fill-opacity:1;stroke:#000000;stroke-width:0.755906;stroke-linecap:round;stroke-linejoin:round;stroke-dasharray:none;stroke-opacity:1"
         inkscape:label="True_fill"><tspan
           x="275.80371"
           y="609.08594"
           id="tspan24"><tspan
             style="font-weight:bold;-inkscape-font-specification:'Constantia Bold Italic';display:inline;fill:#30da00;stroke:none"
             id="tspan23">True</tspan></tspan></text>
    </g>
    <g
       id="g41"
       inkscape:label="False"
       style="display:inline">
      <g
         id="g42"
         transform="translate(62.192669,-33.019611)">
        <path
           style="font-style:italic;font-weight:bold;font-size:32px;font-family:Constantia;-inkscape-font-specification:'Constantia Bold Italic';text-align:center;letter-spacing:4.5px;text-anchor:middle;white-space:pre;fill:#30da00;stroke:#000000;stroke-width:1.51181;stroke-linecap:round;stroke-linejoin:round;stroke-dasharray:none;stroke-opacity:1"
           d="m 277.4209,604.16406 q -0.1875,0.9375 -0.32813,1.70313 -0.14062,0.76562 -0.23437,1.39062 -0.0469,0.39063 0.4375,0.53125 l 2.0625,0.54688 -0.125,0.79687 q -2.8125,-0.0469 -5.09375,-0.0469 -2.48438,0 -4.70313,0.0469 l 0.0937,-0.79687 2.10938,-0.57813 q 0.42187,-0.10937 0.53125,-0.48437 0.125,-0.625 0.28125,-1.39063 0.15625,-0.78125 0.34375,-1.71875 l 2.375,-12.42187 q 0.15625,-0.79688 0.26562,-1.4375 0.10938,-0.64063 0.1875,-1.15625 0.0781,-0.40625 -0.26562,-0.53125 l -2.0625,-0.60938 0.125,-0.79687 q 2.375,0.0625 4.82812,0.0625 h 3.09375 q 3.73438,0 7.9375,-0.0625 l 0.0781,0.125 -1.79688,5.20312 -0.875,0.125 -0.4375,-3.8125 h -5.89062 l -1.64063,8.67188 h 0.78125 q 1.125,0 3.125,-0.0156 0.4375,-0.0156 0.60938,-0.42187 l 0.96875,-2.14063 0.96875,-0.0312 q -0.78125,3.40625 -1.29688,6.65625 l -0.96875,0.0625 -0.17187,-2.15625 q -0.0312,-0.40625 -0.39063,-0.42187 -1.375,-0.0312 -3.17187,-0.0312 h -0.76563 z m 30.34375,-9.625 q -0.57813,1.90625 -1.17188,4.875 l -1.40625,6.95313 q -0.0781,0.35937 -0.0781,0.59375 0,0.32812 0.125,0.53125 0.14062,0.1875 0.42187,0.3125 0.29688,0.10937 0.75,0.14062 0.46875,0.0312 1.14063,0.0312 l -0.10938,0.73438 q -2.73437,0.65625 -4.125,0.65625 -1.17187,0 -1.84375,-0.51563 -0.65625,-0.53125 -0.65625,-1.51562 v -0.3125 q -2.82812,2.48437 -4.07812,2.48437 -2.125,0 -3.53125,-1.625 -1.40625,-1.64062 -1.40625,-4.15625 0,-3.95312 2.6875,-6.67187 2.70312,-2.71875 6.8125,-2.71875 1.8125,0 3.90625,0.57812 1.15625,-0.20312 2.29687,-0.54687 z m -4.82813,1.625 q -0.84375,-0.39062 -1.92187,-0.39062 -2.04688,0 -3.375,2.34375 -1.32813,2.34375 -1.32813,5.03125 0,1.57812 0.48438,2.78125 0.5,1.1875 1.14062,1.1875 0.875,0 3.09375,-1.67188 z m 13.71875,-8.57812 0.0156,-0.67188 q 4.15625,-0.64062 7.26562,-1.35937 l 0.1875,0.1875 q -0.14062,0.59375 -0.3125,1.35937 -0.17187,0.75 -0.375,1.65625 -0.1875,0.89063 -0.40625,1.90625 -0.20312,1.01563 -0.4375,2.09375 l -2.79687,13.64063 q -0.0625,0.29687 -0.0625,0.60937 0,0.5 0.40625,0.73438 0.42187,0.21875 2.04687,0.23437 l -0.0937,0.73438 q -2.70312,0.65625 -4.3125,0.65625 -1.26562,0 -1.89062,-0.46875 -0.60938,-0.46875 -0.60938,-1.40625 0,-0.28125 0.15625,-1.04688 l 3.8125,-18.48437 z m 22.71875,8.53125 q -0.95312,-0.25 -1.75,-0.25 -1.57812,0 -2.4375,0.54687 -0.85937,0.53125 -0.85937,1.59375 0,0.45313 0.23437,0.79688 0.25,0.34375 0.67188,0.64062 0.42187,0.28125 0.95312,0.54688 0.53125,0.25 1.10938,0.51562 0.6875,0.32813 1.375,0.70313 0.6875,0.375 1.20312,0.875 0.53125,0.48437 0.875,1.14062 0.34375,0.64063 0.34375,1.51563 0,2.28125 -1.8125,3.53125 -1.79687,1.23437 -4.96875,1.23437 -1.5,0 -2.96875,-0.28125 -1.45312,-0.28125 -2.67187,-0.75 0.26562,-0.9375 0.51562,-1.96875 0.25,-1.03125 0.46875,-2.10937 l 0.78125,-0.125 1.01563,3.375 q 1.14062,0.32812 2.25,0.32812 1.4375,0 2.28125,-0.59375 0.84375,-0.59375 0.84375,-1.71875 0,-0.48437 -0.25,-0.84375 -0.25,-0.35937 -0.67188,-0.65625 -0.40625,-0.29687 -0.9375,-0.54687 -0.53125,-0.26563 -1.09375,-0.53125 -0.65625,-0.29688 -1.28125,-0.65625 -0.60937,-0.35938 -1.10937,-0.84375 -0.5,-0.48438 -0.8125,-1.125 -0.29688,-0.64063 -0.29688,-1.5 0,-2.1875 1.90625,-3.39063 1.92188,-1.21875 5.14063,-1.21875 2.45312,0 4.73437,0.73438 -0.23437,0.79687 -0.48437,1.79687 -0.23438,1 -0.45313,2.14063 l -0.76562,0.14062 z m 21.64063,9.96875 0.53125,0.78125 q -2.98438,2.60937 -6.625,2.60937 -2.84375,0 -4.59375,-1.54687 -1.75,-1.54688 -1.75,-4.23438 0,-3.98437 2.84375,-6.67187 2.84375,-2.6875 6.89062,-2.6875 2.25,0 3.46875,0.82812 1.21875,0.8125 1.21875,2.375 0,1.95313 -2.5,3.26563 -2.5,1.29687 -7.375,1.53125 -0.0312,0.375 -0.0312,0.70312 0,2.10938 0.85938,3.21875 0.85937,1.09375 2.57812,1.09375 2.21875,0 4.48438,-1.26562 z m -7.76563,-5 q 5.40625,-0.5 5.40625,-3.48438 0,-0.82812 -0.39062,-1.23437 -0.375,-0.42188 -0.96875,-0.42188 -1.28125,0 -2.4375,1.4375 -1.15625,1.42188 -1.60938,3.70313 z"
           id="text41"
           inkscape:label="False_outline"
           transform="matrix(0.26458333,0,0,0.26458333,9.5964841,15.687955)"
           aria-label="False" />
        <text
           xml:space="preserve"
           transform="matrix(0.26458333,0,0,0.26458333,9.5964841,15.687955)"
           id="text42"
           style="font-style:italic;font-size:32px;font-family:Constantia;-inkscape-font-specification:'Constantia Italic';text-align:center;letter-spacing:4.5px;writing-mode:lr-tb;direction:ltr;white-space:pre;shape-inside:url(#rect42);display:inline;fill:#da0000;fill-opacity:1;stroke:#000000;stroke-width:0.755906;stroke-linecap:round;stroke-linejoin:round;stroke-dasharray:none;stroke-opacity:1"
           inkscape:label="False_fill"><tspan
             x="269.38965"
             y="609.08594"
             id="tspan26"><tspan
               style="font-weight:bold;-inkscape-font-specification:'Constantia Bold Italic';display:inline;stroke:none"
               id="tspan25">False</tspan></tspan></text>
      </g>
    </g>
  </g>
</svg>
